<svg xmlns="http://www.w3.org/2000/svg" version="1.1" xmlns:xlink="http://www.w3.org/1999/xlink" xmlns:svgjs="http://svgjs.dev/svgjs" width="2000" height="1252" viewBox="0 0 2000 1252"><g transform="matrix(1,0,0,1,-1.2121212121212466,-2.01935483870966)"><svg viewBox="0 0 396 248" data-background-color="#161513" preserveAspectRatio="xMidYMid meet" height="1252" width="2000" xmlns="http://www.w3.org/2000/svg" xmlns:xlink="http://www.w3.org/1999/xlink"><g id="tight-bounds" transform="matrix(1,0,0,1,0.2400000000000091,0.4000000000000057)"><svg viewBox="0 0 395.52 247.2" height="247.2" width="395.52"><rect width="395.52" height="247.2" fill="url(#c3b18caf-5457-4756-935d-e2983563c28b)" mask="url(#935a7488-9883-4da8-9c3b-ff8ee53c35c4)" data-fill-palette-color="tertiary"></rect><g><svg></svg></g><g><svg viewBox="0 0 395.52 247.2" height="247.2" width="395.52"><g transform="matrix(1,0,0,1,75.54432,79.73899852556517)"><svg viewBox="0 0 244.43135999999998 87.72200294886964" height="87.72200294886964" width="244.43135999999998"><g><svg viewBox="0 0 417.2450978453448 149.74173405405404" height="87.72200294886964" width="244.43135999999998"><g transform="matrix(1,0,0,1,172.81373784534483,0)"><svg viewBox="0 0 244.43135999999996 149.74173405405404" height="149.74173405405404" width="244.43135999999996"><g id="textblocktransform"><svg viewBox="0 0 244.43135999999996 149.74173405405404" height="149.74173405405404" width="244.43135999999996" id="textblock"><g><svg viewBox="0 0 244.43135999999996 149.74173405405404" height="149.74173405405404" width="244.43135999999996"><g transform="matrix(1,0,0,1,0,0)"><svg width="244.43135999999996" viewBox="0.5 -34 55.5 34" height="149.74173405405404" data-palette-color="#7666fd"><g class="wordmark-text-0" data-fill-palette-color="primary" id="text-0"><path d="M27.6-30.85L27.15-34 0.5-34 0.5-30.85 11.9-30.85 11.9 0 15.9 0 15.9-30.85 27.6-30.85ZM32.75 0L43.4 0Q46.05 0 48.32-0.53 50.6-1.05 52.32-2.18 54.05-3.3 55.02-5.13 56-6.95 56-9.55L56-9.55Q56-13 54.17-15.1 52.35-17.2 49.45-18.2L49.45-18.2Q51.35-19.25 52.75-20.93 54.15-22.6 54.15-24.95L54.15-24.95Q54.15-28.4 52.62-30.35 51.1-32.3 48.4-33.15 45.7-34 42.2-34L42.2-34 32.75-34 32.75 0ZM36.7-30.65L42.05-30.65Q44.5-30.65 46.32-30.2 48.15-29.75 49.15-28.5 50.15-27.25 50.15-24.9L50.15-24.9Q50.15-22.8 48.92-21.55 47.7-20.3 45.7-19.78 43.7-19.25 41.3-19.2L41.3-19.2 36.7-19.2 36.7-30.65ZM36.7-15.95L43.85-15.95Q47.55-15.95 49.77-14.43 52-12.9 52-9.45L52-9.45Q52-7.15 50.85-5.8 49.7-4.45 47.75-3.88 45.8-3.3 43.35-3.3L43.35-3.3 36.7-3.3 36.7-15.95Z" fill="#7666fd" data-fill-palette-color="primary"></path></g></svg></g></svg></g></svg></g></svg></g><g transform="matrix(1,0,0,1,0,8.963224520224188)"><svg viewBox="0 0 137.46330823679997 131.81528501360566" height="131.81528501360566" width="137.46330823679997"><g><svg xmlns="http://www.w3.org/2000/svg" xmlns:xlink="http://www.w3.org/1999/xlink" version="1.1" x="0" y="0" viewBox="0.0009671038392672082 0.48795491521100476 23.998065792321466 23.012045343335277" style="enable-background:new 0 0 24 24;" xml:space="preserve" height="131.81528501360566" width="137.46330823679997" class="icon-icon-0" data-fill-palette-color="accent" id="icon-0"></svg></g></svg></g></svg></g></svg></g><path d="M218.11 73.739L218.11 20.016 10.942 20.016 10.942 227.184 218.11 227.184 218.11 173.461 210.199 173.461 210.199 219.273 18.853 219.273 18.853 27.927 210.199 27.927 210.199 73.739Z" fill="url(#c3b18caf-5457-4756-935d-e2983563c28b)" stroke="transparent" data-fill-palette-color="tertiary"></path></svg></g><defs></defs><mask id="b0d06416-9a07-467e-bd65-c5b0be6214ce"><g id="SvgjsG1004"><svg viewBox="0 0 395.52 247.2" height="247.2" width="395.52"><g><svg></svg></g><g><svg viewBox="0 0 395.52 247.2" height="247.2" width="395.52"><g transform="matrix(1,0,0,1,75.54432,79.73899852556517)"><svg viewBox="0 0 244.43135999999998 87.72200294886964" height="87.72200294886964" width="244.43135999999998"><g><svg viewBox="0 0 417.2450978453448 149.74173405405404" height="87.72200294886964" width="244.43135999999998"><g transform="matrix(1,0,0,1,172.81373784534483,0)"><svg viewBox="0 0 244.43135999999996 149.74173405405404" height="149.74173405405404" width="244.43135999999996"><g id="SvgjsG1003"><svg viewBox="0 0 244.43135999999996 149.74173405405404" height="149.74173405405404" width="244.43135999999996" id="SvgjsSvg1002"><g><svg viewBox="0 0 244.43135999999996 149.74173405405404" height="149.74173405405404" width="244.43135999999996"><g transform="matrix(1,0,0,1,0,0)"><svg width="244.43135999999996" viewBox="0.5 -34 55.5 34" height="149.74173405405404" data-palette-color="#7666fd"><g class="wordmark-text-0" data-fill-palette-color="primary" id="SvgjsG1001"><path d="M27.6-30.85L27.15-34 0.5-34 0.5-30.85 11.9-30.85 11.9 0 15.9 0 15.9-30.85 27.6-30.85ZM32.75 0L43.4 0Q46.05 0 48.32-0.53 50.6-1.05 52.32-2.18 54.05-3.3 55.02-5.13 56-6.95 56-9.55L56-9.55Q56-13 54.17-15.1 52.35-17.2 49.45-18.2L49.45-18.2Q51.35-19.25 52.75-20.93 54.15-22.6 54.15-24.95L54.15-24.95Q54.15-28.4 52.62-30.35 51.1-32.3 48.4-33.15 45.7-34 42.2-34L42.2-34 32.75-34 32.75 0ZM36.7-30.65L42.05-30.65Q44.5-30.65 46.32-30.2 48.15-29.75 49.15-28.5 50.15-27.25 50.15-24.9L50.15-24.9Q50.15-22.8 48.92-21.55 47.7-20.3 45.7-19.78 43.7-19.25 41.3-19.2L41.3-19.2 36.7-19.2 36.7-30.65ZM36.7-15.95L43.85-15.95Q47.55-15.95 49.77-14.43 52-12.9 52-9.45L52-9.45Q52-7.15 50.85-5.8 49.7-4.45 47.75-3.88 45.8-3.3 43.35-3.3L43.35-3.3 36.7-3.3 36.7-15.95Z" fill="black"></path></g></svg></g></svg></g></svg></g></svg></g><g transform="matrix(1,0,0,1,0,8.963224520224188)"><svg viewBox="0 0 137.46330823679997 131.81528501360566" height="131.81528501360566" width="137.46330823679997"><g><svg xmlns="http://www.w3.org/2000/svg" xmlns:xlink="http://www.w3.org/1999/xlink" version="1.1" x="0" y="0" viewBox="0.0009671038392672082 0.48795491521100476 23.998065792321466 23.012045343335277" style="enable-background:new 0 0 24 24;" xml:space="preserve" height="131.81528501360566" width="137.46330823679997" class="icon-icon-0" data-fill-palette-color="accent" id="SvgjsSvg1000"><g fill="white"><g fill="white"><path d="M7.5 23.5A0.5 0.5 0 0 1 7.038 22.811L16.038 0.811A0.5 0.5 0 1 1 16.963 1.19L7.963 23.19A0.5 0.5 0 0 1 7.5 23.5" fill="white"></path></g><g fill="white"><path d="M17.5 19.5A0.5 0.5 0 0 1 17.121 18.674L22.841 12 17.12 5.325A0.5 0.5 0 1 1 17.879 4.674L23.879 11.674A0.5 0.5 0 0 1 23.879 12.324L17.879 19.324A0.5 0.5 0 0 1 17.5 19.5" fill="white"></path></g><g fill="white"><path d="M6.5 19.5A0.5 0.5 0 0 1 6.121 19.325L0.121 12.325A0.5 0.5 0 0 1 0.121 11.675L6.121 4.675A0.5 0.5 0 1 1 6.879 5.325L1.159 12 6.88 18.675A0.5 0.5 0 0 1 6.5 19.5" fill="white"></path></g></g></svg></g></svg></g></svg></g></svg></g><path d="M218.11 73.739L218.11 20.016 10.942 20.016 10.942 227.184 218.11 227.184 218.11 173.461 210.199 173.461 210.199 219.273 18.853 219.273 18.853 27.927 210.199 27.927 210.199 73.739Z" fill="black" stroke="transparent"></path></svg></g><defs><mask></mask></defs></svg><rect width="395.52" height="247.2" fill="black" stroke="none" visibility="hidden"></rect></g></mask><linearGradient x1="0.054" x2="0.941" y1="0.5" y2="0.5" id="b68ed5f4-5749-4db9-b737-6572880a26da"><stop stop-color="#0f3054" offset="0"></stop><stop stop-color="#3b8dcb" offset="0.498"></stop><stop stop-color="#0f3054" offset="1"></stop></linearGradient><rect width="395.52" height="247.2" fill="url(#b68ed5f4-5749-4db9-b737-6572880a26da)" mask="url(#b0d06416-9a07-467e-bd65-c5b0be6214ce)" data-fill-palette-color="accent"></rect><mask id="935a7488-9883-4da8-9c3b-ff8ee53c35c4"><g id="SvgjsG1014"><svg viewBox="0 0 395.52 247.2" height="247.2" width="395.52"><g><svg></svg></g><g><svg viewBox="0 0 395.52 247.2" height="247.2" width="395.52"><g transform="matrix(1,0,0,1,75.54432,79.73899852556517)"><svg viewBox="0 0 244.43135999999998 87.72200294886964" height="87.72200294886964" width="244.43135999999998"><g><svg viewBox="0 0 417.2450978453448 149.74173405405404" height="87.72200294886964" width="244.43135999999998"><g transform="matrix(1,0,0,1,172.81373784534483,0)"><svg viewBox="0 0 244.43135999999996 149.74173405405404" height="149.74173405405404" width="244.43135999999996"><g id="SvgjsG1013"><svg viewBox="0 0 244.43135999999996 149.74173405405404" height="149.74173405405404" width="244.43135999999996" id="SvgjsSvg1012"><g><svg viewBox="0 0 244.43135999999996 149.74173405405404" height="149.74173405405404" width="244.43135999999996"><g transform="matrix(1,0,0,1,0,0)"><svg width="244.43135999999996" viewBox="0.5 -34 55.5 34" height="149.74173405405404" data-palette-color="#7666fd"><g class="wordmark-text-0" data-fill-palette-color="primary" id="SvgjsG1011"><path d="M27.6-30.85L27.15-34 0.5-34 0.5-30.85 11.9-30.85 11.9 0 15.9 0 15.9-30.85 27.6-30.85ZM32.75 0L43.4 0Q46.05 0 48.32-0.53 50.6-1.05 52.32-2.18 54.05-3.3 55.02-5.13 56-6.95 56-9.55L56-9.55Q56-13 54.17-15.1 52.35-17.2 49.45-18.2L49.45-18.2Q51.35-19.25 52.75-20.93 54.15-22.6 54.15-24.95L54.15-24.95Q54.15-28.4 52.62-30.35 51.1-32.3 48.4-33.15 45.7-34 42.2-34L42.2-34 32.75-34 32.75 0ZM36.7-30.65L42.05-30.65Q44.5-30.65 46.32-30.2 48.15-29.75 49.15-28.5 50.15-27.25 50.15-24.9L50.15-24.9Q50.15-22.8 48.92-21.55 47.7-20.3 45.7-19.78 43.7-19.25 41.3-19.2L41.3-19.2 36.7-19.2 36.7-30.65ZM36.7-15.95L43.85-15.95Q47.55-15.95 49.77-14.43 52-12.9 52-9.45L52-9.45Q52-7.15 50.85-5.8 49.7-4.45 47.75-3.88 45.8-3.3 43.35-3.3L43.35-3.3 36.7-3.3 36.7-15.95Z" fill="black"></path></g></svg></g></svg></g></svg></g></svg></g><g transform="matrix(1,0,0,1,0,8.963224520224188)"><svg viewBox="0 0 137.46330823679997 131.81528501360566" height="131.81528501360566" width="137.46330823679997"><g><svg xmlns="http://www.w3.org/2000/svg" xmlns:xlink="http://www.w3.org/1999/xlink" version="1.1" x="0" y="0" viewBox="0.0009671038392672082 0.48795491521100476 23.998065792321466 23.012045343335277" style="enable-background:new 0 0 24 24;" xml:space="preserve" height="131.81528501360566" width="137.46330823679997" class="icon-icon-0" data-fill-palette-color="accent" id="SvgjsSvg1010"></svg></g></svg></g></svg></g></svg></g><path d="M218.11 73.739L218.11 20.016 10.942 20.016 10.942 227.184 218.11 227.184 218.11 173.461 210.199 173.461 210.199 219.273 18.853 219.273 18.853 27.927 210.199 27.927 210.199 73.739Z" fill="white" stroke="transparent"></path></svg></g><defs><mask></mask></defs><mask><g id="SvgjsG1009"><svg viewBox="0 0 395.52 247.2" height="247.2" width="395.52"><g><svg></svg></g><g><svg viewBox="0 0 395.52 247.2" height="247.2" width="395.52"><g transform="matrix(1,0,0,1,75.54432,79.73899852556517)"><svg viewBox="0 0 244.43135999999998 87.72200294886964" height="87.72200294886964" width="244.43135999999998"><g><svg viewBox="0 0 417.2450978453448 149.74173405405404" height="87.72200294886964" width="244.43135999999998"><g transform="matrix(1,0,0,1,172.81373784534483,0)"><svg viewBox="0 0 244.43135999999996 149.74173405405404" height="149.74173405405404" width="244.43135999999996"><g id="SvgjsG1008"><svg viewBox="0 0 244.43135999999996 149.74173405405404" height="149.74173405405404" width="244.43135999999996" id="SvgjsSvg1007"><g><svg viewBox="0 0 244.43135999999996 149.74173405405404" height="149.74173405405404" width="244.43135999999996"><g transform="matrix(1,0,0,1,0,0)"><svg width="244.43135999999996" viewBox="0.5 -34 55.5 34" height="149.74173405405404" data-palette-color="#7666fd"><g class="wordmark-text-0" data-fill-palette-color="primary" id="SvgjsG1006"><path d="M27.6-30.85L27.15-34 0.5-34 0.5-30.85 11.9-30.85 11.9 0 15.9 0 15.9-30.85 27.6-30.85ZM32.75 0L43.4 0Q46.05 0 48.32-0.53 50.6-1.05 52.32-2.18 54.05-3.3 55.02-5.13 56-6.95 56-9.55L56-9.55Q56-13 54.17-15.1 52.35-17.2 49.45-18.2L49.45-18.2Q51.35-19.25 52.75-20.93 54.15-22.6 54.15-24.95L54.15-24.95Q54.15-28.4 52.62-30.35 51.1-32.3 48.4-33.15 45.7-34 42.2-34L42.2-34 32.75-34 32.75 0ZM36.7-30.65L42.05-30.65Q44.5-30.65 46.32-30.2 48.15-29.75 49.15-28.5 50.15-27.25 50.15-24.9L50.15-24.9Q50.15-22.8 48.92-21.55 47.7-20.3 45.7-19.78 43.7-19.25 41.3-19.2L41.3-19.2 36.7-19.2 36.7-30.65ZM36.7-15.95L43.85-15.95Q47.55-15.95 49.77-14.43 52-12.9 52-9.45L52-9.45Q52-7.15 50.85-5.8 49.7-4.45 47.75-3.88 45.8-3.3 43.35-3.3L43.35-3.3 36.7-3.3 36.7-15.95Z" fill="black"></path></g></svg></g></svg></g></svg></g></svg></g><g transform="matrix(1,0,0,1,0,8.963224520224188)"><svg viewBox="0 0 137.46330823679997 131.81528501360566" height="131.81528501360566" width="137.46330823679997"><g><svg xmlns="http://www.w3.org/2000/svg" xmlns:xlink="http://www.w3.org/1999/xlink" version="1.1" x="0" y="0" viewBox="0.0009671038392672082 0.48795491521100476 23.998065792321466 23.012045343335277" style="enable-background:new 0 0 24 24;" xml:space="preserve" height="131.81528501360566" width="137.46330823679997" class="icon-icon-0" data-fill-palette-color="accent" id="SvgjsSvg1005"><g fill="black"><g fill="black"><path d="M7.5 23.5A0.5 0.5 0 0 1 7.038 22.811L16.038 0.811A0.5 0.5 0 1 1 16.963 1.19L7.963 23.19A0.5 0.5 0 0 1 7.5 23.5" fill="black"></path></g><g fill="black"><path d="M17.5 19.5A0.5 0.5 0 0 1 17.121 18.674L22.841 12 17.12 5.325A0.5 0.5 0 1 1 17.879 4.674L23.879 11.674A0.5 0.5 0 0 1 23.879 12.324L17.879 19.324A0.5 0.5 0 0 1 17.5 19.5" fill="black"></path></g><g fill="black"><path d="M6.5 19.5A0.5 0.5 0 0 1 6.121 19.325L0.121 12.325A0.5 0.5 0 0 1 0.121 11.675L6.121 4.675A0.5 0.5 0 1 1 6.879 5.325L1.159 12 6.88 18.675A0.5 0.5 0 0 1 6.5 19.5" fill="black"></path></g></g></svg></g></svg></g></svg></g></svg></g><path d="M218.11 73.739L218.11 20.016 10.942 20.016 10.942 227.184 218.11 227.184 218.11 173.461 210.199 173.461 210.199 219.273 18.853 219.273 18.853 27.927 210.199 27.927 210.199 73.739Z" fill="black" stroke="transparent"></path></svg></g><defs><mask></mask></defs></svg><rect width="395.52" height="247.2" fill="black" stroke="none" visibility="hidden"></rect></g></mask></svg><rect width="395.52" height="247.2" fill="black" stroke="none" visibility="hidden"></rect></g></mask><linearGradient x1="0" x2="1" y1="0.548" y2="0.55" id="c3b18caf-5457-4756-935d-e2983563c28b"><stop stop-color="#ff6cab" offset="0"></stop><stop stop-color="#7366ff" offset="1"></stop></linearGradient></svg><rect width="395.52" height="247.2" fill="none" stroke="none" visibility="hidden"></rect></g></svg></g></svg>